<svg width="11" height="17" viewBox="0 0 11 17" fill="none" xmlns="http://www.w3.org/2000/svg">
<path d="M1.9618 2.73212C3.91521 0.807902 7.0851 0.807937 9.03817 2.7321C9.90248 3.58361 10.4024 4.83389 10.4872 6.14128C10.5719 7.4487 10.2378 8.76066 9.50201 9.72714L9.49624 9.73471L9.49077 9.7425L5.5 15.4206L1.50923 9.7425L1.50376 9.73471L1.49799 9.72714C0.76221 8.76066 0.428126 7.4487 0.512846 6.14128C0.597564 4.83389 1.0975 3.58363 1.9618 2.73212ZM1.9618 2.73212L1.61092 2.37592M1.9618 2.73212L1.61092 2.37592M1.61092 2.37592C3.75895 0.259983 7.24136 0.259983 9.38908 2.37592C11.3244 4.28258 11.5423 7.87264 9.89984 10.03H1.10016C-0.542253 7.87264 -0.324394 4.28258 1.61092 2.37592ZM3.23807 6.15467C3.23807 7.42573 4.28171 8.44329 5.55356 8.44329C6.8254 8.44329 7.86905 7.42573 7.86905 6.15467C7.86905 4.88361 6.8254 3.86605 5.55356 3.86605C4.28171 3.86605 3.23807 4.88361 3.23807 6.15467Z" stroke="white"/>
</svg>
